<?xml version="1.0" encoding="UTF-8"?>
<svg id="Capa_1" data-name="Capa 1" xmlns="http://www.w3.org/2000/svg" viewBox="0 0 600 172.6">
  <defs>
    <style>
      .cls-1 {
        fill: #fff;
      }

      .cls-2 {
        fill: #eb5e15;
      }
    </style>
  </defs>
  <rect class="cls-1" width="600" height="172.6"/>
  <g>
    <g>
      <path class="cls-2" d="m550.6,61.22h3.07c1.24,0,2.28.67,2.28,1.86,0,.72-.37,1.26-1.09,1.51v.05c.59.17.82.54.94,1.14.15.79.15,1.78.15,1.78h-1.68s-.05-.84-.12-1.46c-.05-.57-.37-.84-.99-.84h-.84v2.3h-1.71v-6.34Zm1.71,2.8h1.06c.59,0,.89-.25.89-.72s-.27-.72-.89-.72h-1.06v1.44Z"/>
      <path class="cls-2" d="m553.25,71.5h0c-3.93,0-7.11-3.18-7.11-7.11h0c0-3.93,3.18-7.11,7.11-7.11h0c3.93,0,7.11,3.18,7.11,7.11h0c0,3.93-3.18,7.11-7.11,7.11Zm0-1.48h0c3.11,0,5.63-2.52,5.63-5.63h0c0-3.11-2.52-5.63-5.63-5.63h0c-3.11,0-5.63,2.52-5.63,5.63h0c0,3.11,2.52,5.63,5.63,5.63Z"/>
    </g>
    <g>
      <polygon class="cls-2" points="75.81 83.21 75.81 72.2 124.58 72.2 124.58 83.21 143.15 83.21 143.15 57.87 57.25 57.87 57.25 83.21 75.81 83.21"/>
      <polygon class="cls-2" points="124.58 90.54 124.58 102.28 75.81 102.28 75.81 90.54 57.25 90.54 57.25 115.92 143.15 115.92 143.15 90.54 124.58 90.54"/>
    </g>
    <path class="cls-2" d="m419.88,57.22v57.25h57.25v-57.25h-57.25Zm39.05,39.05h-20.85v-20.85h20.85v20.85Z"/>
    <polygon class="cls-2" points="179.68 75.58 179.68 114.48 198.01 114.48 198.01 75.58 217.46 75.58 217.46 57.22 160.21 57.22 160.21 75.58 179.68 75.58"/>
    <polygon class="cls-2" points="308 96.12 307.91 57.22 290 57.22 290 89.28 290 114.48 322.61 114.48 347.25 114.48 347.34 96.12 308 96.12"/>
    <polygon class="cls-2" points="264.01 57.22 264.01 96.12 243.12 96.12 243.12 57.22 225.12 57.22 225.12 114.48 282.38 114.48 282.38 57.22 264.01 57.22"/>
    <path class="cls-2" d="m412.21,57.22h-57.25v57.25h57.25v-22.84l-8.72-5.64,8.72-5.78v-22.99Zm-18.2,13.87v8.81h-21.03v-8.81h21.03Zm-21.03,30.08v-9.54h21.03v9.54h-21.03Z"/>
    <polygon class="cls-2" points="542.64 72.24 542.64 57.22 527.61 57.22 527.66 57.27 514.02 70.91 500.38 57.27 500.43 57.22 485.39 57.22 485.39 72.24 499.03 85.87 485.39 99.51 485.39 114.47 500.38 114.47 514.02 100.84 527.66 114.47 542.64 114.47 542.64 99.51 529.01 85.87 542.64 72.24"/>
    <polygon class="cls-2" points="93.19 55.95 93.19 52.05 107.21 52.05 107.21 55.95 113.8 55.95 113.8 46.96 86.59 46.96 86.59 55.95 93.19 55.95"/>
  </g>
</svg>