<?xml version="1.0" encoding="UTF-8"?>
<svg id="Capa_1" data-name="Capa 1" xmlns="http://www.w3.org/2000/svg" viewBox="0 0 600 237.48">
  <defs>
    <style>
      .cls-1 {
        fill: #fff;
      }

      .cls-2 {
        fill: #eb5e15;
      }
    </style>
  </defs>
  <rect class="cls-1" width="600" height="237.48"/>
  <g>
    <g>
      <path class="cls-2" d="m152.11,168.21v-10.92h-3.98v-3.91h12.43v3.91h-3.96v10.92h-4.49Z"/>
      <path class="cls-2" d="m163.49,153.38h4.56v8.58c0,1.42.73,2.56,2.58,2.56s2.56-1.13,2.56-2.56v-8.58h4.56v8.71c0,3.69-2.11,6.38-7.11,6.38s-7.14-2.69-7.14-6.36v-8.74Z"/>
      <path class="cls-2" d="m187.68,160.8c0-4.58,3.51-7.67,8.05-7.67,4,0,5.96,2.27,6.85,4.31l-3.87,1.8c-.38-1.16-1.53-2.16-2.98-2.16-2.05,0-3.49,1.65-3.49,3.71s1.45,3.71,3.49,3.71c1.45,0,2.6-1,2.98-2.16l3.87,1.78c-.87,1.98-2.85,4.33-6.85,4.33-4.54,0-8.05-3.11-8.05-7.67Z"/>
      <path class="cls-2" d="m215.21,168.21l-.58-1.91h-5.69l-.58,1.91h-4.87l5.47-14.83h5.65l5.47,14.83h-4.87Zm-3.42-10.87l-1.69,5.22h3.38l-1.69-5.22Z"/>
      <path class="cls-2" d="m223.51,163.85c.49.33,1.16.67,1.91.67.98,0,1.65-.62,1.65-1.67v-9.47h4.49v9.54c0,3.8-2.29,5.56-5.74,5.56-1.45,0-2.98-.31-4.14-1.2l1.82-3.42Z"/>
      <path class="cls-2" d="m244.52,168.21l-.58-1.91h-5.69l-.58,1.91h-4.87l5.47-14.83h5.65l5.47,14.83h-4.87Zm-3.42-10.87l-1.69,5.22h3.38l-1.69-5.22Z"/>
      <path class="cls-2" d="m258.53,168.21v-14.83h6.63c4.67,0,8.14,2.67,8.14,7.4s-3.47,7.43-8.11,7.43h-6.65Zm4.49-3.91h2.13c2.25,0,3.58-1.65,3.58-3.51,0-2-1.16-3.49-3.56-3.49h-2.16v7Z"/>
      <path class="cls-2" d="m276.23,168.21v-14.83h11.25v3.73h-6.76v1.73h6.6v3.74h-6.6v1.89h6.76v3.73h-11.25Z"/>
      <path class="cls-2" d="m299.02,162.78c1.11,1.07,2.78,1.91,4.78,1.91.84,0,1.65-.29,1.65-.87s-.62-.87-2.09-1.13c-2.45-.44-6.18-1.02-6.18-4.74,0-2.51,2.09-4.8,6.16-4.8,2.42,0,4.6.69,6.29,2.07l-2.4,3.18c-1.29-.98-2.96-1.47-4.14-1.47-1.11,0-1.36.4-1.36.78,0,.58.6.78,2.18,1.04,2.45.42,6.07,1.13,6.07,4.56s-2.42,5.16-6.4,5.16c-3.16,0-5.31-.93-6.89-2.36l2.33-3.33Z"/>
      <path class="cls-2" d="m320.1,153.13c4.58,0,8.11,3.11,8.11,7.67s-3.53,7.67-8.11,7.67-8.11-3.11-8.11-7.67,3.53-7.67,8.11-7.67Zm0,3.96c-2.16,0-3.56,1.65-3.56,3.71s1.4,3.71,3.56,3.71,3.56-1.65,3.56-3.71-1.4-3.71-3.56-3.71Z"/>
      <path class="cls-2" d="m331.16,168.21v-14.83h4.49v10.92h5.62v3.91h-10.12Z"/>
      <path class="cls-2" d="m343.97,153.38h4.56v8.58c0,1.42.73,2.56,2.58,2.56s2.56-1.13,2.56-2.56v-8.58h4.56v8.71c0,3.69-2.11,6.38-7.11,6.38s-7.14-2.69-7.14-6.36v-8.74Z"/>
      <path class="cls-2" d="m361.15,160.8c0-4.58,3.51-7.67,8.05-7.67,4,0,5.96,2.27,6.85,4.31l-3.87,1.8c-.38-1.16-1.53-2.16-2.98-2.16-2.05,0-3.49,1.65-3.49,3.71s1.45,3.71,3.49,3.71c1.45,0,2.6-1,2.98-2.16l3.87,1.78c-.87,1.98-2.85,4.33-6.85,4.33-4.54,0-8.05-3.11-8.05-7.67Z"/>
      <path class="cls-2" d="m378.79,168.21v-14.83h4.49v14.83h-4.49Z"/>
      <path class="cls-2" d="m394.33,153.13c4.58,0,8.11,3.11,8.11,7.67s-3.53,7.67-8.11,7.67-8.11-3.11-8.11-7.67,3.53-7.67,8.11-7.67Zm0,3.96c-2.16,0-3.56,1.65-3.56,3.71s1.4,3.71,3.56,3.71,3.56-1.65,3.56-3.71-1.4-3.71-3.56-3.71Z"/>
      <path class="cls-2" d="m415.34,168.21l-5.47-7.96v7.96h-4.49v-14.83h4.62l5.16,7.47v-7.47h4.49v14.83h-4.31Z"/>
      <path class="cls-2" d="m423.4,168.21v-14.83h11.25v3.73h-6.76v1.73h6.6v3.74h-6.6v1.89h6.76v3.73h-11.25Z"/>
      <path class="cls-2" d="m439.18,162.78c1.11,1.07,2.78,1.91,4.78,1.91.84,0,1.65-.29,1.65-.87s-.62-.87-2.09-1.13c-2.45-.44-6.18-1.02-6.18-4.74,0-2.51,2.09-4.8,6.16-4.8,2.42,0,4.6.69,6.29,2.07l-2.4,3.18c-1.29-.98-2.96-1.47-4.14-1.47-1.11,0-1.36.4-1.36.78,0,.58.6.78,2.18,1.04,2.45.42,6.07,1.13,6.07,4.56s-2.42,5.16-6.4,5.16c-3.16,0-5.31-.93-6.89-2.36l2.33-3.33Z"/>
    </g>
    <g>
      <path class="cls-2" d="m540.21,73.87h3.7c1.49,0,2.75.81,2.75,2.24,0,.87-.45,1.52-1.31,1.82v.06c.72.21.98.66,1.13,1.37.18.95.18,2.15.18,2.15h-2.03s-.06-1.02-.15-1.76c-.06-.69-.45-1.02-1.19-1.02h-1.02v2.78h-2.06v-7.64Zm2.06,3.37h1.28c.72,0,1.07-.3,1.07-.87s-.33-.87-1.07-.87h-1.28v1.73Z"/>
      <path class="cls-2" d="m543.4,86.27h0c-4.74,0-8.58-3.84-8.58-8.58h0c0-4.74,3.84-8.58,8.58-8.58h0c4.74,0,8.58,3.84,8.58,8.58h0c0,4.74-3.84,8.58-8.58,8.58Zm0-1.79h0c3.75,0,6.79-3.04,6.79-6.79h0c0-3.75-3.04-6.79-6.79-6.79h0c-3.75,0-6.79,3.04-6.79,6.79h0c0,3.75,3.04,6.79,6.79,6.79Z"/>
    </g>
    <g>
      <path class="cls-2" d="m382.32,69.05v69.07h69.07v-69.07h-69.07Zm47.11,47.11h-25.15v-25.15h25.15v25.15Z"/>
      <polygon class="cls-2" points="92.54 91.2 92.54 138.12 114.65 138.12 114.65 91.2 138.12 91.2 138.12 69.05 69.05 69.05 69.05 91.2 92.54 91.2"/>
      <polygon class="cls-2" points="247.34 115.97 247.25 69.05 225.64 69.05 225.64 107.73 225.64 138.12 264.97 138.12 294.71 138.12 294.8 115.97 247.34 115.97"/>
      <polygon class="cls-2" points="194.28 69.05 194.28 115.97 169.08 115.97 169.08 69.05 147.37 69.05 147.37 138.12 216.44 138.12 216.44 69.05 194.28 69.05"/>
      <path class="cls-2" d="m373.07,69.05h-69.07v69.07h69.07v-27.56l-10.52-6.8,10.52-6.97v-27.74Zm-21.96,16.73v10.62h-25.37v-10.62h25.37Zm-25.37,36.29v-11.51h25.37v11.51h-25.37Z"/>
      <polygon class="cls-2" points="530.43 87.16 530.43 69.05 512.29 69.05 512.34 69.11 495.89 85.56 479.44 69.11 479.5 69.05 461.36 69.05 461.36 87.16 477.81 103.61 461.36 120.06 461.36 138.12 479.44 138.12 495.89 121.67 512.34 138.12 530.43 138.12 530.43 120.06 513.98 103.61 530.43 87.16"/>
    </g>
  </g>
</svg>